solid button outfit
facet normal -0.9914448613738115 0.13052619222004325 0.0
  outer loop
    vertex 72.65949481831989 94.24665340510211 12.838165413050392
    vertex 72.57765410493403 93.62501146981306 11.982165413050385
    vertex 72.57765410493403 93.62501146981306 12.838165413050392
  endloop
endfacet
facet normal -0.9914448613738115 0.13052619222004325 0.0
  outer loop
    vertex 72.57765410493403 93.62501146981306 11.982165413050385
    vertex 72.65949481831989 94.24665340510211 12.838165413050392
    vertex 72.65949481831989 94.24665340510211 11.982165413050385
  endloop
endfacet
facet normal 0.9914448613738115 -0.13052619222004325 0.0
  outer loop
    vertex 67.93765553170573 94.86829534039116 11.982165413050385
    vertex 67.85581481831987 94.24665340510211 12.838165413050392
    vertex 67.85581481831987 94.24665340510211 11.982165413050385
  endloop
endfacet
facet normal 0.9914448613738115 -0.13052619222004325 0.0
  outer loop
    vertex 67.85581481831987 94.24665340510211 12.838165413050392
    vertex 67.93765553170573 94.86829534039116 11.982165413050385
    vertex 67.93765553170573 94.86829534039116 12.838165413050392
  endloop
endfacet
facet normal -0.9914448613738115 -0.13052619222004325 -0.0
  outer loop
    vertex 72.57765410493403 94.86829534039116 12.838165413050392
    vertex 72.65949481831989 94.24665340510211 11.982165413050385
    vertex 72.65949481831989 94.24665340510211 12.838165413050392
  endloop
endfacet
facet normal -0.9914448613738115 -0.13052619222004325 -0.0
  outer loop
    vertex 72.65949481831989 94.24665340510211 11.982165413050385
    vertex 72.57765410493403 94.86829534039116 12.838165413050392
    vertex 72.57765410493403 94.86829534039116 11.982165413050385
  endloop
endfacet
facet normal -0.6087614290087194 0.7933533402912363 0.0
  outer loop
    vertex 71.45857481831987 92.16659894927649 12.838165413050392
    vertex 71.95601216964498 92.54829605377701 11.982165413050385
    vertex 71.45857481831987 92.16659894927649 11.982165413050385
  endloop
endfacet
facet normal -0.6087614290087194 0.7933533402912363 0.0
  outer loop
    vertex 71.95601216964498 92.54829605377701 11.982165413050385
    vertex 71.45857481831987 92.16659894927649 12.838165413050392
    vertex 71.95601216964498 92.54829605377701 12.838165413050392
  endloop
endfacet
facet normal -0.3826834323650958 0.9238795325112843 0.0
  outer loop
    vertex 70.87929675360893 91.92665411848796 12.838165413050392
    vertex 71.45857481831987 92.16659894927649 11.982165413050385
    vertex 70.87929675360893 91.92665411848796 11.982165413050385
  endloop
endfacet
facet normal -0.3826834323650958 0.9238795325112843 0.0
  outer loop
    vertex 71.45857481831987 92.16659894927649 11.982165413050385
    vertex 70.87929675360893 91.92665411848796 12.838165413050392
    vertex 71.45857481831987 92.16659894927649 12.838165413050392
  endloop
endfacet
facet normal 0.3826834323650958 -0.9238795325112843 0.0
  outer loop
    vertex 69.63601288303084 96.56665269171624 12.838165413050392
    vertex 69.05673481831988 96.32670786092773 11.982165413050385
    vertex 69.63601288303084 96.56665269171624 11.982165413050385
  endloop
endfacet
facet normal 0.3826834323650958 -0.9238795325112843 0.0
  outer loop
    vertex 69.05673481831988 96.32670786092773 11.982165413050385
    vertex 69.63601288303084 96.56665269171624 12.838165413050392
    vertex 69.05673481831988 96.32670786092773 12.838165413050392
  endloop
endfacet
facet normal 0.7933533402912363 0.6087614290087194 0.0
  outer loop
    vertex 68.17760036249426 93.04573340510211 11.982165413050385
    vertex 68.55929746699478 92.54829605377701 12.838165413050392
    vertex 68.55929746699478 92.54829605377701 11.982165413050385
  endloop
endfacet
facet normal 0.7933533402912363 0.6087614290087194 0.0
  outer loop
    vertex 68.55929746699478 92.54829605377701 12.838165413050392
    vertex 68.17760036249426 93.04573340510211 11.982165413050385
    vertex 68.17760036249426 93.04573340510211 12.838165413050392
  endloop
endfacet
facet normal 0.9238795325112843 -0.3826834323650958 0.0
  outer loop
    vertex 68.17760036249426 95.4475734051021 11.982165413050385
    vertex 67.93765553170573 94.86829534039116 12.838165413050392
    vertex 67.93765553170573 94.86829534039116 11.982165413050385
  endloop
endfacet
facet normal 0.9238795325112843 -0.3826834323650958 0.0
  outer loop
    vertex 67.93765553170573 94.86829534039116 12.838165413050392
    vertex 68.17760036249426 95.4475734051021 11.982165413050385
    vertex 68.17760036249426 95.4475734051021 12.838165413050392
  endloop
endfacet
facet normal 0.6087614290087281 0.7933533402912294 0.0
  outer loop
    vertex 68.55929746699478 92.54829605377701 12.838165413050392
    vertex 69.05673481831987 92.16659894927649 11.982165413050385
    vertex 68.55929746699478 92.54829605377701 11.982165413050385
  endloop
endfacet
facet normal 0.6087614290087281 0.7933533402912294 0.0
  outer loop
    vertex 69.05673481831987 92.16659894927649 11.982165413050385
    vertex 68.55929746699478 92.54829605377701 12.838165413050392
    vertex 69.05673481831987 92.16659894927649 12.838165413050392
  endloop
endfacet
facet normal -0.13052619222004325 0.9914448613738115 0.0
  outer loop
    vertex 70.25765481831988 91.8448134051021 12.838165413050392
    vertex 70.87929675360893 91.92665411848796 11.982165413050385
    vertex 70.25765481831988 91.8448134051021 11.982165413050385
  endloop
endfacet
facet normal -0.13052619222004325 0.9914448613738115 0.0
  outer loop
    vertex 70.87929675360893 91.92665411848796 11.982165413050385
    vertex 70.25765481831988 91.8448134051021 12.838165413050392
    vertex 70.87929675360893 91.92665411848796 12.838165413050392
  endloop
endfacet
facet normal 0.9914448613738115 0.13052619222004325 0.0
  outer loop
    vertex 67.85581481831987 94.24665340510211 11.982165413050385
    vertex 67.93765553170573 93.62501146981306 12.838165413050392
    vertex 67.93765553170573 93.62501146981306 11.982165413050385
  endloop
endfacet
facet normal 0.9914448613738115 0.13052619222004325 0.0
  outer loop
    vertex 67.93765553170573 93.62501146981306 12.838165413050392
    vertex 67.85581481831987 94.24665340510211 11.982165413050385
    vertex 67.85581481831987 94.24665340510211 12.838165413050392
  endloop
endfacet
facet normal 0.9238795325112843 0.3826834323650958 0.0
  outer loop
    vertex 67.93765553170573 93.62501146981306 11.982165413050385
    vertex 68.17760036249426 93.04573340510211 12.838165413050392
    vertex 68.17760036249426 93.04573340510211 11.982165413050385
  endloop
endfacet
facet normal 0.9238795325112843 0.3826834323650958 0.0
  outer loop
    vertex 68.17760036249426 93.04573340510211 12.838165413050392
    vertex 67.93765553170573 93.62501146981306 11.982165413050385
    vertex 67.93765553170573 93.62501146981306 12.838165413050392
  endloop
endfacet
facet normal 0.13052619222004325 0.9914448613738115 0.0
  outer loop
    vertex 69.63601288303084 91.92665411848796 12.838165413050392
    vertex 70.25765481831988 91.8448134051021 11.982165413050385
    vertex 69.63601288303084 91.92665411848796 11.982165413050385
  endloop
endfacet
facet normal 0.13052619222004325 0.9914448613738115 0.0
  outer loop
    vertex 70.25765481831988 91.8448134051021 11.982165413050385
    vertex 69.63601288303084 91.92665411848796 12.838165413050392
    vertex 70.25765481831988 91.8448134051021 12.838165413050392
  endloop
endfacet
facet normal 0.3826834323650894 0.9238795325112868 0.0
  outer loop
    vertex 69.05673481831987 92.16659894927649 12.838165413050392
    vertex 69.63601288303084 91.92665411848796 11.982165413050385
    vertex 69.05673481831987 92.16659894927649 11.982165413050385
  endloop
endfacet
facet normal 0.3826834323650894 0.9238795325112868 0.0
  outer loop
    vertex 69.63601288303084 91.92665411848796 11.982165413050385
    vertex 69.05673481831987 92.16659894927649 12.838165413050392
    vertex 69.63601288303084 91.92665411848796 12.838165413050392
  endloop
endfacet
facet normal 0.6087614290087194 -0.7933533402912363 0.0
  outer loop
    vertex 69.05673481831988 96.32670786092773 12.838165413050392
    vertex 68.55929746699478 95.9450107564272 11.982165413050385
    vertex 69.05673481831988 96.32670786092773 11.982165413050385
  endloop
endfacet
facet normal 0.6087614290087194 -0.7933533402912363 0.0
  outer loop
    vertex 68.55929746699478 95.9450107564272 11.982165413050385
    vertex 69.05673481831988 96.32670786092773 12.838165413050392
    vertex 68.55929746699478 95.9450107564272 12.838165413050392
  endloop
endfacet
facet normal 1.0 0.0 0.0
  outer loop
    vertex 66.94065481831984 97.56365340510227 12.838165413050382
    vertex 66.94065481831984 90.92965340510231 15.830401413050357
    vertex 66.94065481831984 90.92965340510231 12.838165413050382
  endloop
endfacet
facet normal 1.0 0.0 0.0
  outer loop
    vertex 66.94065481831984 90.92965340510231 15.830401413050357
    vertex 66.94065481831984 97.56365340510227 12.838165413050382
    vertex 66.94065481831984 97.56365340510227 15.830401413050357
  endloop
endfacet
facet normal 0.0 1.0 0.0
  outer loop
    vertex 66.2771696445141 98.17725089890773 15.830401413050357
    vertex 74.1383646321255 98.17725089890773 11.982165413050376
    vertex 66.2771696445141 98.17725089890773 11.982165413050376
  endloop
endfacet
facet normal 0.0 1.0 0.0
  outer loop
    vertex 74.1383646321255 98.17725089890773 11.982165413050376
    vertex 66.2771696445141 98.17725089890773 15.830401413050357
    vertex 74.1383646321255 98.17725089890773 15.830401413050357
  endloop
endfacet
facet normal 2.39831287267355e-16 2.8882049310967395e-16 1.0
  outer loop
    vertex 66.94065481831984 90.92965340510231 12.838165413050382
    vertex 67.93765553170573 93.62501146981306 12.838165413050392
    vertex 66.94065481831984 97.56365340510227 12.838165413050382
  endloop
endfacet
facet normal 2.39831287267355e-16 2.8882049310967395e-16 1.0
  outer loop
    vertex 67.93765553170573 93.62501146981306 12.838165413050392
    vertex 66.94065481831984 90.92965340510231 12.838165413050382
    vertex 68.17760036249426 93.04573340510211 12.838165413050392
  endloop
endfacet
facet normal 2.39831287267355e-16 2.8882049310967395e-16 1.0
  outer loop
    vertex 68.17760036249426 93.04573340510211 12.838165413050392
    vertex 66.94065481831984 90.92965340510231 12.838165413050382
    vertex 68.55929746699478 92.54829605377701 12.838165413050392
  endloop
endfacet
facet normal 2.39831287267355e-16 2.8882049310967395e-16 1.0
  outer loop
    vertex 68.55929746699478 92.54829605377701 12.838165413050392
    vertex 66.94065481831984 90.92965340510231 12.838165413050382
    vertex 69.05673481831987 92.16659894927649 12.838165413050392
  endloop
endfacet
facet normal 2.39831287267355e-16 2.8882049310967395e-16 1.0
  outer loop
    vertex 69.05673481831987 92.16659894927649 12.838165413050392
    vertex 66.94065481831984 90.92965340510231 12.838165413050382
    vertex 69.63601288303084 91.92665411848796 12.838165413050392
  endloop
endfacet
facet normal 2.39831287267355e-16 2.8882049310967395e-16 1.0
  outer loop
    vertex 69.63601288303084 91.92665411848796 12.838165413050392
    vertex 66.94065481831984 90.92965340510231 12.838165413050382
    vertex 73.57465481831989 90.92965340510231 12.838165413050382
  endloop
endfacet
facet normal 2.39831287267355e-16 2.8882049310967395e-16 1.0
  outer loop
    vertex 66.94065481831984 97.56365340510227 12.838165413050382
    vertex 67.93765553170573 93.62501146981306 12.838165413050392
    vertex 67.85581481831987 94.24665340510211 12.838165413050392
  endloop
endfacet
facet normal 2.39831287267355e-16 2.8882049310967395e-16 1.0
  outer loop
    vertex 69.63601288303084 91.92665411848796 12.838165413050392
    vertex 73.57465481831989 90.92965340510231 12.838165413050382
    vertex 70.25765481831988 91.8448134051021 12.838165413050392
  endloop
endfacet
facet normal 2.39831287267355e-16 2.8882049310967395e-16 1.0
  outer loop
    vertex 70.25765481831988 91.8448134051021 12.838165413050392
    vertex 73.57465481831989 90.92965340510231 12.838165413050382
    vertex 70.87929675360893 91.92665411848796 12.838165413050392
  endloop
endfacet
facet normal 2.39831287267355e-16 2.8882049310967395e-16 1.0
  outer loop
    vertex 70.87929675360893 91.92665411848796 12.838165413050392
    vertex 73.57465481831989 90.92965340510231 12.838165413050382
    vertex 71.45857481831987 92.16659894927649 12.838165413050392
  endloop
endfacet
facet normal 2.39831287267355e-16 2.8882049310967395e-16 1.0
  outer loop
    vertex 71.45857481831987 92.16659894927649 12.838165413050392
    vertex 73.57465481831989 90.92965340510231 12.838165413050382
    vertex 71.95601216964498 92.54829605377701 12.838165413050392
  endloop
endfacet
facet normal 2.39831287267355e-16 2.8882049310967395e-16 1.0
  outer loop
    vertex 71.95601216964498 92.54829605377701 12.838165413050392
    vertex 73.57465481831989 90.92965340510231 12.838165413050382
    vertex 72.33770927414551 93.0457334051021 12.838165413050392
  endloop
endfacet
facet normal 2.39831287267355e-16 2.8882049310967395e-16 1.0
  outer loop
    vertex 72.33770927414551 93.0457334051021 12.838165413050392
    vertex 73.57465481831989 90.92965340510231 12.838165413050382
    vertex 72.57765410493403 93.62501146981306 12.838165413050392
  endloop
endfacet
facet normal 2.39831287267355e-16 2.8882049310967395e-16 1.0
  outer loop
    vertex 72.57765410493403 93.62501146981306 12.838165413050392
    vertex 73.57465481831989 90.92965340510231 12.838165413050382
    vertex 72.65949481831989 94.24665340510211 12.838165413050392
  endloop
endfacet
facet normal 2.39831287267355e-16 2.8882049310967395e-16 1.0
  outer loop
    vertex 66.94065481831984 97.56365340510227 12.838165413050382
    vertex 69.63601288303084 96.56665269171624 12.838165413050392
    vertex 73.57465481831989 97.56365340510227 12.838165413050382
  endloop
endfacet
facet normal 2.39831287267355e-16 2.8882049310967395e-16 1.0
  outer loop
    vertex 69.63601288303084 96.56665269171624 12.838165413050392
    vertex 66.94065481831984 97.56365340510227 12.838165413050382
    vertex 69.05673481831988 96.32670786092773 12.838165413050392
  endloop
endfacet
facet normal 2.39831287267355e-16 2.8882049310967395e-16 1.0
  outer loop
    vertex 69.05673481831988 96.32670786092773 12.838165413050392
    vertex 66.94065481831984 97.56365340510227 12.838165413050382
    vertex 68.55929746699478 95.9450107564272 12.838165413050392
  endloop
endfacet
facet normal 2.39831287267355e-16 2.8882049310967395e-16 1.0
  outer loop
    vertex 68.55929746699478 95.9450107564272 12.838165413050392
    vertex 66.94065481831984 97.56365340510227 12.838165413050382
    vertex 68.17760036249426 95.4475734051021 12.838165413050392
  endloop
endfacet
facet normal 2.39831287267355e-16 2.8882049310967395e-16 1.0
  outer loop
    vertex 68.17760036249426 95.4475734051021 12.838165413050392
    vertex 66.94065481831984 97.56365340510227 12.838165413050382
    vertex 67.93765553170573 94.86829534039116 12.838165413050392
  endloop
endfacet
facet normal 2.39831287267355e-16 2.8882049310967395e-16 1.0
  outer loop
    vertex 67.93765553170573 94.86829534039116 12.838165413050392
    vertex 66.94065481831984 97.56365340510227 12.838165413050382
    vertex 67.85581481831987 94.24665340510211 12.838165413050392
  endloop
endfacet
facet normal 2.39831287267355e-16 2.8882049310967395e-16 1.0
  outer loop
    vertex 73.57465481831989 97.56365340510227 12.838165413050382
    vertex 69.63601288303084 96.56665269171624 12.838165413050392
    vertex 70.25765481831988 96.6484934051021 12.838165413050392
  endloop
endfacet
facet normal 2.39831287267355e-16 2.8882049310967395e-16 1.0
  outer loop
    vertex 73.57465481831989 97.56365340510227 12.838165413050382
    vertex 70.25765481831988 96.6484934051021 12.838165413050392
    vertex 70.87929675360893 96.56665269171624 12.838165413050392
  endloop
endfacet
facet normal 2.39831287267355e-16 2.8882049310967395e-16 1.0
  outer loop
    vertex 73.57465481831989 97.56365340510227 12.838165413050382
    vertex 70.87929675360893 96.56665269171624 12.838165413050392
    vertex 71.45857481831989 96.32670786092773 12.838165413050392
  endloop
endfacet
facet normal 2.39831287267355e-16 2.8882049310967395e-16 1.0
  outer loop
    vertex 73.57465481831989 97.56365340510227 12.838165413050382
    vertex 71.45857481831989 96.32670786092773 12.838165413050392
    vertex 71.95601216964498 95.9450107564272 12.838165413050392
  endloop
endfacet
facet normal 2.39831287267355e-16 2.8882049310967395e-16 1.0
  outer loop
    vertex 73.57465481831989 97.56365340510227 12.838165413050382
    vertex 71.95601216964498 95.9450107564272 12.838165413050392
    vertex 72.33770927414551 95.4475734051021 12.838165413050392
  endloop
endfacet
facet normal 2.39831287267355e-16 2.8882049310967395e-16 1.0
  outer loop
    vertex 73.57465481831989 97.56365340510227 12.838165413050382
    vertex 72.33770927414551 95.4475734051021 12.838165413050392
    vertex 72.57765410493403 94.86829534039116 12.838165413050392
  endloop
endfacet
facet normal 2.39831287267355e-16 2.8882049310967395e-16 1.0
  outer loop
    vertex 73.57465481831989 97.56365340510227 12.838165413050382
    vertex 72.57765410493403 94.86829534039116 12.838165413050392
    vertex 72.65949481831989 94.24665340510211 12.838165413050392
  endloop
endfacet
facet normal 2.39831287267355e-16 2.8882049310967395e-16 1.0
  outer loop
    vertex 73.57465481831989 97.56365340510227 12.838165413050382
    vertex 72.65949481831989 94.24665340510211 12.838165413050392
    vertex 73.57465481831989 90.92965340510231 12.838165413050382
  endloop
endfacet
facet normal 0.0 0.0 1.0
  outer loop
    vertex 74.18825231212554 90.31605591129667 15.830401413050357
    vertex 66.94065481831984 90.92965340510231 15.830401413050357
    vertex 66.32705732451413 90.31605591129667 15.830401413050357
  endloop
endfacet
facet normal 0.0 0.0 1.0
  outer loop
    vertex 66.94065481831984 90.92965340510231 15.830401413050357
    vertex 74.18825231212554 90.31605591129667 15.830401413050357
    vertex 73.57465481831989 90.92965340510231 15.830401413050357
  endloop
endfacet
facet normal 0.0 0.0 1.0
  outer loop
    vertex 73.57465481831989 90.92965340510231 15.830401413050357
    vertex 74.18825231212554 90.31605591129667 15.830401413050357
    vertex 73.57465481831989 97.56365340510227 15.830401413050357
  endloop
endfacet
facet normal 0.0 0.0 1.0
  outer loop
    vertex 73.57465481831989 97.56365340510227 15.830401413050357
    vertex 74.18825231212554 90.31605591129667 15.830401413050357
    vertex 74.1383646321255 98.17725089890773 15.830401413050357
  endloop
endfacet
facet normal 0.0 0.0 1.0
  outer loop
    vertex 66.2771696445141 98.17725089890773 15.830401413050357
    vertex 66.94065481831984 97.56365340510227 15.830401413050357
    vertex 74.1383646321255 98.17725089890773 15.830401413050357
  endloop
endfacet
facet normal 0.0 0.0 1.0
  outer loop
    vertex 66.94065481831984 97.56365340510227 15.830401413050357
    vertex 66.2771696445141 98.17725089890773 15.830401413050357
    vertex 66.32705732451413 90.31605591129667 15.830401413050357
  endloop
endfacet
facet normal 0.0 0.0 1.0
  outer loop
    vertex 66.94065481831984 97.56365340510227 15.830401413050357
    vertex 66.32705732451413 90.31605591129667 15.830401413050357
    vertex 66.94065481831984 90.92965340510231 15.830401413050357
  endloop
endfacet
facet normal 0.0 0.0 1.0
  outer loop
    vertex 74.1383646321255 98.17725089890773 15.830401413050357
    vertex 66.94065481831984 97.56365340510227 15.830401413050357
    vertex 73.57465481831989 97.56365340510227 15.830401413050357
  endloop
endfacet
facet normal 0.0 -1.0 0.0
  outer loop
    vertex 74.18825231212554 90.31605591129667 15.830401413050357
    vertex 66.32705732451413 90.31605591129667 11.982165413050376
    vertex 74.18825231212554 90.31605591129667 11.982165413050376
  endloop
endfacet
facet normal 0.0 -1.0 0.0
  outer loop
    vertex 66.32705732451413 90.31605591129667 11.982165413050376
    vertex 74.18825231212554 90.31605591129667 15.830401413050357
    vertex 66.32705732451413 90.31605591129667 15.830401413050357
  endloop
endfacet
facet normal 0.999979864317002 0.006345940478021603 0.0
  outer loop
    vertex 74.1383646321255 98.17725089890773 11.982165413050376
    vertex 74.18825231212554 90.31605591129667 15.830401413050357
    vertex 74.18825231212554 90.31605591129667 11.982165413050376
  endloop
endfacet
facet normal 0.999979864317002 0.006345940478021603 0.0
  outer loop
    vertex 74.18825231212554 90.31605591129667 15.830401413050357
    vertex 74.1383646321255 98.17725089890773 11.982165413050376
    vertex 74.1383646321255 98.17725089890773 15.830401413050357
  endloop
endfacet
facet normal 0.0 -1.0 0.0
  outer loop
    vertex 73.57465481831989 97.56365340510227 15.830401413050357
    vertex 66.94065481831984 97.56365340510227 12.838165413050382
    vertex 73.57465481831989 97.56365340510227 12.838165413050382
  endloop
endfacet
facet normal 0.0 -1.0 0.0
  outer loop
    vertex 66.94065481831984 97.56365340510227 12.838165413050382
    vertex 73.57465481831989 97.56365340510227 15.830401413050357
    vertex 66.94065481831984 97.56365340510227 15.830401413050357
  endloop
endfacet
facet normal 0.0 1.0 0.0
  outer loop
    vertex 66.94065481831984 90.92965340510231 15.830401413050357
    vertex 73.57465481831989 90.92965340510231 12.838165413050382
    vertex 66.94065481831984 90.92965340510231 12.838165413050382
  endloop
endfacet
facet normal 0.0 1.0 0.0
  outer loop
    vertex 73.57465481831989 90.92965340510231 12.838165413050382
    vertex 66.94065481831984 90.92965340510231 15.830401413050357
    vertex 73.57465481831989 90.92965340510231 15.830401413050357
  endloop
endfacet
facet normal -1.0 0.0 0.0
  outer loop
    vertex 73.57465481831989 97.56365340510227 15.830401413050357
    vertex 73.57465481831989 90.92965340510231 12.838165413050382
    vertex 73.57465481831989 90.92965340510231 15.830401413050357
  endloop
endfacet
facet normal -1.0 0.0 0.0
  outer loop
    vertex 73.57465481831989 90.92965340510231 12.838165413050382
    vertex 73.57465481831989 97.56365340510227 15.830401413050357
    vertex 73.57465481831989 97.56365340510227 12.838165413050382
  endloop
endfacet
facet normal -0.999979864317002 -0.006345940478020067 0.0
  outer loop
    vertex 66.2771696445141 98.17725089890773 15.830401413050357
    vertex 66.32705732451413 90.31605591129667 11.982165413050376
    vertex 66.32705732451413 90.31605591129667 15.830401413050357
  endloop
endfacet
facet normal -0.999979864317002 -0.006345940478020067 0.0
  outer loop
    vertex 66.32705732451413 90.31605591129667 11.982165413050376
    vertex 66.2771696445141 98.17725089890773 15.830401413050357
    vertex 66.2771696445141 98.17725089890773 11.982165413050376
  endloop
endfacet
facet normal -0.9238795325112843 -0.3826834323650958 -0.0
  outer loop
    vertex 72.33770927414551 95.4475734051021 12.838165413050392
    vertex 72.57765410493403 94.86829534039116 11.982165413050385
    vertex 72.57765410493403 94.86829534039116 12.838165413050392
  endloop
endfacet
facet normal -0.9238795325112843 -0.3826834323650958 -0.0
  outer loop
    vertex 72.57765410493403 94.86829534039116 11.982165413050385
    vertex 72.33770927414551 95.4475734051021 12.838165413050392
    vertex 72.33770927414551 95.4475734051021 11.982165413050385
  endloop
endfacet
facet normal -0.6087614290087281 -0.7933533402912294 -0.0
  outer loop
    vertex 71.95601216964498 95.9450107564272 12.838165413050392
    vertex 71.45857481831989 96.32670786092773 11.982165413050385
    vertex 71.95601216964498 95.9450107564272 11.982165413050385
  endloop
endfacet
facet normal -0.6087614290087281 -0.7933533402912294 -0.0
  outer loop
    vertex 71.45857481831989 96.32670786092773 11.982165413050385
    vertex 71.95601216964498 95.9450107564272 12.838165413050392
    vertex 71.45857481831989 96.32670786092773 12.838165413050392
  endloop
endfacet
facet normal -0.7933533402912294 0.6087614290087281 0.0
  outer loop
    vertex 72.33770927414551 93.0457334051021 12.838165413050392
    vertex 71.95601216964498 92.54829605377701 11.982165413050385
    vertex 71.95601216964498 92.54829605377701 12.838165413050392
  endloop
endfacet
facet normal -0.7933533402912294 0.6087614290087281 0.0
  outer loop
    vertex 71.95601216964498 92.54829605377701 11.982165413050385
    vertex 72.33770927414551 93.0457334051021 12.838165413050392
    vertex 72.33770927414551 93.0457334051021 11.982165413050385
  endloop
endfacet
facet normal -0.7933533402912294 -0.6087614290087281 -0.0
  outer loop
    vertex 71.95601216964498 95.9450107564272 12.838165413050392
    vertex 72.33770927414551 95.4475734051021 11.982165413050385
    vertex 72.33770927414551 95.4475734051021 12.838165413050392
  endloop
endfacet
facet normal -0.7933533402912294 -0.6087614290087281 -0.0
  outer loop
    vertex 72.33770927414551 95.4475734051021 11.982165413050385
    vertex 71.95601216964498 95.9450107564272 12.838165413050392
    vertex 71.95601216964498 95.9450107564272 11.982165413050385
  endloop
endfacet
facet normal -0.9238795325112868 0.3826834323650894 0.0
  outer loop
    vertex 72.57765410493403 93.62501146981306 12.838165413050392
    vertex 72.33770927414551 93.0457334051021 11.982165413050385
    vertex 72.33770927414551 93.0457334051021 12.838165413050392
  endloop
endfacet
facet normal -0.9238795325112868 0.3826834323650894 0.0
  outer loop
    vertex 72.33770927414551 93.0457334051021 11.982165413050385
    vertex 72.57765410493403 93.62501146981306 12.838165413050392
    vertex 72.57765410493403 93.62501146981306 11.982165413050385
  endloop
endfacet
facet normal 0.7933533402912294 -0.6087614290087281 0.0
  outer loop
    vertex 68.55929746699478 95.9450107564272 11.982165413050385
    vertex 68.17760036249426 95.4475734051021 12.838165413050392
    vertex 68.17760036249426 95.4475734051021 11.982165413050385
  endloop
endfacet
facet normal 0.7933533402912294 -0.6087614290087281 0.0
  outer loop
    vertex 68.17760036249426 95.4475734051021 12.838165413050392
    vertex 68.55929746699478 95.9450107564272 11.982165413050385
    vertex 68.55929746699478 95.9450107564272 12.838165413050392
  endloop
endfacet
facet normal 0.13052619222004325 -0.9914448613738115 0.0
  outer loop
    vertex 70.25765481831988 96.6484934051021 12.838165413050392
    vertex 69.63601288303084 96.56665269171624 11.982165413050385
    vertex 70.25765481831988 96.6484934051021 11.982165413050385
  endloop
endfacet
facet normal 0.13052619222004325 -0.9914448613738115 0.0
  outer loop
    vertex 69.63601288303084 96.56665269171624 11.982165413050385
    vertex 70.25765481831988 96.6484934051021 12.838165413050392
    vertex 69.63601288303084 96.56665269171624 12.838165413050392
  endloop
endfacet
facet normal -0.3826834323650894 -0.9238795325112868 -0.0
  outer loop
    vertex 71.45857481831989 96.32670786092773 12.838165413050392
    vertex 70.87929675360893 96.56665269171624 11.982165413050385
    vertex 71.45857481831989 96.32670786092773 11.982165413050385
  endloop
endfacet
facet normal -0.3826834323650894 -0.9238795325112868 -0.0
  outer loop
    vertex 70.87929675360893 96.56665269171624 11.982165413050385
    vertex 71.45857481831989 96.32670786092773 12.838165413050392
    vertex 70.87929675360893 96.56665269171624 12.838165413050392
  endloop
endfacet
facet normal -0.13052619222004325 -0.9914448613738115 -0.0
  outer loop
    vertex 70.87929675360893 96.56665269171624 12.838165413050392
    vertex 70.25765481831988 96.6484934051021 11.982165413050385
    vertex 70.87929675360893 96.56665269171624 11.982165413050385
  endloop
endfacet
facet normal -0.13052619222004325 -0.9914448613738115 -0.0
  outer loop
    vertex 70.25765481831988 96.6484934051021 11.982165413050385
    vertex 70.87929675360893 96.56665269171624 12.838165413050392
    vertex 70.25765481831988 96.6484934051021 12.838165413050392
  endloop
endfacet
endsolid button outfit
